<svg xmlns="http://www.w3.org/2000/svg" xmlns:xlink="http://www.w3.org/1999/xlink" width="213" height="116" viewBox="0 0 213 116">
  <defs>
    <clipPath id="clip-path">
      <rect id="Rectangle_5850" data-name="Rectangle 5850" width="213.383" height="143.498" fill="#fff"/>
    </clipPath>
    <clipPath id="clip-_02_Logo">
      <rect width="213" height="116"/>
    </clipPath>
  </defs>
  <g id="_02_Logo" data-name="02 Logo" clip-path="url(#clip-_02_Logo)">
    <rect width="213" height="116" fill="#1d1d1b"/>
    <rect id="Rectangle_5851" data-name="Rectangle 5851" width="213" height="116" fill="#ee6e00"/>
    <path id="Path_3725" data-name="Path 3725" d="M-10,0H223V58H-10Z" transform="translate(0 58)" fill="#1d1d1b"/>
    <g id="Group_15463" data-name="Group 15463" transform="translate(0 -23)">
      <path id="Path_3671" data-name="Path 3671" d="M-9.7,127.462l233.182.027-.151-58.029L-9.851,69.436Z" transform="translate(-0.1 -46.611)" fill="#fff"/>
      <path id="Path_3672" data-name="Path 3672" d="M86.585,95.316l6.665-.015,0,21.2-6.612.019ZM93.546,68.97l.028,16.019-40.422.084L39.144,108.194,24.85,84.94l-34.733-.076V94.91L7.5,95.169l19.527,32.077,13.242,0L59.39,95.15l5.942.056.117,32.048,48.416,0-.144-49.025,5.8-.01,19.514,31.642,11.533-.056L162.1,90.67l12.071,19.291,11.182,0,19.208-31.6,18.9-.012,0-9.54-26.879,0L185.724,86.7,174.2,68.8h-3.784l-9.119.009-10.9,17.773L139.5,68.794Z" transform="translate(-0.079 -46.18)" fill="#161615"/>
      <path id="Path_3673" data-name="Path 3673" d="M-9.749,72.257l-.006,9.029,36.877.01,12.205,19.81L51.153,81.6l38.364-.1.005-12.572-99.267-.192Z" transform="translate(-0.164 -46.141)" fill="#ee6e00"/>
      <path id="Path_3674" data-name="Path 3674" d="M-9.62,161.725l0,27.715,32.206-.024L5.651,161.725Z" transform="translate(-0.253 -108.563)" fill="#ee6e00"/>
      <path id="Path_3675" data-name="Path 3675" d="M136.635,189.9l16.627-27.46.123,27.462Z" transform="translate(-91.72 -109.042)" fill="#ee6e00"/>
      <g id="Group_15464" data-name="Group 15464">
        <g id="Group_15463-2" data-name="Group 15463" clip-path="url(#clip-path)">
          <path id="Path_3676" data-name="Path 3676" d="M463.517,110.506l.116,44.585-105.592.01c-.04-14.629-.12-29.081-.135-43.712a.257.257,0,0,1,.459-.045l18.879,30.682,15.517.082,9.781-15.818,9.745,15.841L428,142.087l19.162-31.578Z" transform="translate(-240.255 -74.18)" fill="#ee6e00"/>
          <path id="Path_3677" data-name="Path 3677" d="M551.238,80.224l-6.7-10.724h13.283Z" transform="translate(-365.535 -46.654)" fill="#ee6e00"/>
          <path id="Path_3678" data-name="Path 3678" d="M444.159,80.094l-6.67-10.657h13.159Z" transform="translate(-293.677 -46.612)" fill="#ee6e00"/>
          <path id="Path_3679" data-name="Path 3679" d="M124.076,308.048l1.124-2.093,1.151,2.095Zm-1.283,2.449.585-1h3.639l.579,1,2.02,0L126.4,304.5l-2.338,0-3.275,5.994Z" transform="translate(-81.081 -204.406)" fill="#fff"/>
          <path id="Path_3680" data-name="Path 3680" d="M153.285,308.054l1.122-2.095,1.153,2.095ZM152,310.5l.591-1h3.636l.577,1,2.022,0-3.214-5.994h-2.339l-3.278,5.994Z" transform="translate(-100.687 -204.41)" fill="#fff"/>
          <path id="Path_3681" data-name="Path 3681" d="M187.488,310.506l0-6h-1.836v4.375l-3.555-4.375h-2.716l0,6h1.84l0-4.342,3.574,4.342Z" transform="translate(-120.416 -204.41)" fill="#fff"/>
          <path id="Path_3682" data-name="Path 3682" d="M214.916,310.506v-6l-1.831,0v4.372l-3.555-4.375h-2.719v6h1.837v-4.342l3.583,4.342Z" transform="translate(-138.828 -204.41)" fill="#fff"/>
          <path id="Path_3683" data-name="Path 3683" d="M240.795,305.986v-1.469h-6.55v5.995h6.622v-1.458l-4.783,0v-.9h4.437v-1.269l-4.437,0v-.891Z" transform="translate(-157.244 -204.416)" fill="#fff"/>
          <path id="Path_3684" data-name="Path 3684" d="M259.132,310.513v-4.244l2.439,4.244h1.2l2.459-4.241v4.241l1.784,0v-6l-2.671,0-2.171,3.733-2.125-3.731-2.713,0v6Z" transform="translate(-172.745 -204.417)" fill="#fff"/>
          <path id="Path_3685" data-name="Path 3685" d="M291.6,304.524h-1.838v6l1.838,0Z" transform="translate(-194.509 -204.42)" fill="#fff"/>
          <path id="Path_3686" data-name="Path 3686" d="M306.591,310.521l0-5.994-1.832,0,0,4.376-3.555-4.377h-2.719v6h1.842v-4.343l3.578,4.341Z" transform="translate(-200.367 -204.42)" fill="#fff"/>
          <path id="Path_3687" data-name="Path 3687" d="M331.692,306.543h1.848a4.5,4.5,0,0,0-.034-.892,1.39,1.39,0,0,0-.512-.964,1.329,1.329,0,0,0-.5-.238,3.443,3.443,0,0,0-.652-.116,8.366,8.366,0,0,0-1.052-.033l-2.045,0a7.529,7.529,0,0,0-.961.046,3.031,3.031,0,0,0-.6.122,1.6,1.6,0,0,0-.9.6,2.544,2.544,0,0,0-.373,1.54v1.63a3.854,3.854,0,0,0,.06.69,1.741,1.741,0,0,0,.356.792,1.694,1.694,0,0,0,.52.431,2.183,2.183,0,0,0,.319.133,2.573,2.573,0,0,0,.565.122,9.225,9.225,0,0,0,1.016.036h2.035a9.586,9.586,0,0,0,1.166-.058,3.065,3.065,0,0,0,.66-.143,1.377,1.377,0,0,0,.8-.594,1.444,1.444,0,0,0,.178-.766V306.91l-4.063,0v1.222h2.151a.572.572,0,0,1-.277.657,7.147,7.147,0,0,1-2.14.146c-.21,0-.424-.012-.579-.027a.9.9,0,0,1-.75-.405,3.791,3.791,0,0,1-.136-1.52,2,2,0,0,1,.075-.654.637.637,0,0,1,.435-.424,2.876,2.876,0,0,1,.951-.092h1.058c.227,0,.458,0,.621.015a1.091,1.091,0,0,1,.476.12c.289.188.258.361.274.6" transform="translate(-218.782 -204.268)" fill="#fff"/>
          <path id="Path_3688" data-name="Path 3688" d="M352.467,308.368c-.009.157-.015.249-.021.422a1.493,1.493,0,0,0,.418,1.249,1.2,1.2,0,0,0,.473.243,3.528,3.528,0,0,0,.632.122,9.551,9.551,0,0,0,.992.042H357.4c.353,0,.706-.011.961-.034a1.6,1.6,0,0,0,1.262-.581,1.842,1.842,0,0,0,.308-1.251,5.075,5.075,0,0,0-.041-.621,1.361,1.361,0,0,0-.563-1,1.637,1.637,0,0,0-.645-.251,4.21,4.21,0,0,0-.621-.06l-3.009-.07c-.244.014-.718-.1-.7-.377-.057-.155.095-.525.272-.521a2.069,2.069,0,0,1,.582-.052h2.106a.552.552,0,0,1,.594.615h1.774a1.716,1.716,0,0,0-.438-1.562,1.376,1.376,0,0,0-.441-.244,3.365,3.365,0,0,0-1.056-.137h-2.8a6.3,6.3,0,0,0-.961.032,3.062,3.062,0,0,0-.6.122,1.2,1.2,0,0,0-.656.488,1.528,1.528,0,0,0-.231.629,4.19,4.19,0,0,0-.042.588,4.334,4.334,0,0,0,.036.578,1.269,1.269,0,0,0,.4.853,1.135,1.135,0,0,0,.372.211,3.36,3.36,0,0,0,1.043.154l2.866.092a2.36,2.36,0,0,1,.577.064c.393.162.383.459.186.8a.677.677,0,0,1-.5.14h-2.294a1.717,1.717,0,0,1-.561-.056c-.357-.151-.276-.364-.293-.629Z" transform="translate(-236.59 -204.27)" fill="#fff"/>
          <path id="Path_3689" data-name="Path 3689" d="M382.636,309.164l-3.366,0V308.1h3.366a.507.507,0,0,1,.5.52.5.5,0,0,1-.5.546m-.163-2.3h-3.2v-.972l3.2,0a.48.48,0,0,1,.466.491.446.446,0,0,1-.461.485m.63,3.667a3.868,3.868,0,0,0,.656-.047,1.389,1.389,0,0,0,1.023-.575,1.747,1.747,0,0,0,.249-1.014,2.311,2.311,0,0,0-.046-.48,1.055,1.055,0,0,0-.426-.706,1.368,1.368,0,0,0-.6-.231,1.4,1.4,0,0,0,.573-.372,1.248,1.248,0,0,0,.293-.909,1.535,1.535,0,0,0-.527-1.27,1.378,1.378,0,0,0-.3-.181,2.877,2.877,0,0,0-1.173-.21h-5.4l0,6Z" transform="translate(-253.357 -204.429)" fill="#fff"/>
          <path id="Path_3690" data-name="Path 3690" d="M409.885,306.013v-1.468h-6.547v5.994h6.619l0-1.459h-4.783l0-.9,4.439,0v-1.272H405.18l0-.893Z" transform="translate(-270.752 -204.435)" fill="#fff"/>
          <path id="Path_3691" data-name="Path 3691" d="M430.756,306.03a3.063,3.063,0,0,1,.474.036.938.938,0,0,1,.793.537,1.2,1.2,0,0,1,.078.441V308.1c.048.317-.24.846-.506.882a1.776,1.776,0,0,1-.61.1H427.9V306.03Zm.558-1.485h-5.261v6h5.8a4.3,4.3,0,0,0,.723-.061,1.56,1.56,0,0,0,1-.554,1.582,1.582,0,0,0,.309-.7,3.376,3.376,0,0,0,.056-.608v-2.057a1.831,1.831,0,0,0-.584-1.493,1.768,1.768,0,0,0-.6-.328,4.452,4.452,0,0,0-1.445-.193" transform="translate(-286.001 -204.434)" fill="#fff"/>
          <path id="Path_3692" data-name="Path 3692" d="M457.636,306.047c.209-.025.571.136.6.319a1.231,1.231,0,0,1-.07.939.605.605,0,0,1-.526.2h-2.905v-1.457Zm.064-1.5-4.814,0v6h1.848V309.01h2.719a1.556,1.556,0,0,1,.508.057c.318.116.3.331.311.551v.923h1.84v-1.234a1.105,1.105,0,0,0-.314-.824,1.345,1.345,0,0,0-.619-.312,1.146,1.146,0,0,0,.782-.556,1.694,1.694,0,0,0,.169-.563,4.923,4.923,0,0,0-.006-1.12,1.342,1.342,0,0,0-.962-1.219,2.733,2.733,0,0,0-.54-.122,6.991,6.991,0,0,0-.922-.046" transform="translate(-304.013 -204.435)" fill="#fff"/>
          <rect id="Rectangle_5846" data-name="Rectangle 5846" width="1.84" height="5.995" transform="translate(157.214 100.112)" fill="#fff"/>
          <path id="Path_3693" data-name="Path 3693" d="M492.753,308.852v-4.3l-1.839,0v3.72c.04.291-.145.8-.378.792a5.987,5.987,0,0,1-1.213.047c-.26,0-.618-.01-.776-.3a1.642,1.642,0,0,1-.1-.874h-1.727v.8a3.951,3.951,0,0,0,.034.551,1.267,1.267,0,0,0,.917,1.159,2.607,2.607,0,0,0,.527.118c.591.074,1.432.039,2.158.047a7.372,7.372,0,0,0,.9-.047,1.965,1.965,0,0,0,.812-.274,1.354,1.354,0,0,0,.451-.476,2.048,2.048,0,0,0,.24-.964" transform="translate(-326.721 -204.439)" fill="#fff"/>
          <path id="Path_3694" data-name="Path 3694" d="M514.867,306.028v-1.467h-6.546l0,5.993h1.84v-2.008H514.6l.006-1.46h-4.44v-1.057Z" transform="translate(-341.224 -204.445)" fill="#fff"/>
          <path id="Path_3695" data-name="Path 3695" d="M47.812,329.058v9.695H53.7v2.924H44.048v-8.6l0-4.022Z" transform="translate(-29.568 -220.89)" fill="#fff"/>
          <rect id="Rectangle_5847" data-name="Rectangle 5847" width="3.049" height="2.925" transform="translate(26.129 117.865)" fill="#fff"/>
          <path id="Path_3696" data-name="Path 3696" d="M116.519,340.584l-2.35,8.6-.075.235-5.083,0-2.648-8.6-.074-.235h3.383l1.787,6.9h.093l1.619-6.9Z" transform="translate(-71.349 -228.625)" fill="#fff"/>
          <rect id="Rectangle_5848" data-name="Rectangle 5848" width="3.049" height="2.926" transform="translate(45.358 117.868)" fill="#fff"/>
          <path id="Path_3697" data-name="Path 3697" d="M157.981,339.575c-1.355,0-1.656-.136-1.656-2.291,0-1.748.038-2.3,1.656-2.3,1.712,0,1.749.587,1.749,2.3,0,2-.413,2.289-1.749,2.289m1.752-10.5,0,5.047h-.15c-.53-1.143-1.562-1.364-2.749-1.364-2.707,0-3.744,1.08-3.744,3.771v2.02c0,2.337,1.353,3.249,3.744,3.249,1.41,0,2.445-.3,2.821-1.632l.152,0-.074,1.533h3.233v-4.02l0-8.6Z" transform="translate(-102.763 -220.902)" fill="#fff"/>
          <rect id="Rectangle_5849" data-name="Rectangle 5849" width="3.045" height="2.926" transform="translate(61.91 117.869)" fill="#fff"/>
          <path id="Path_3698" data-name="Path 3698" d="M229.041,338.808l1.868-8.6.263-1.128h3.779l-2.125,8.6-1,4.023h-5.434l-1.92-7.91h-.15l-2.049,7.908-5.384,0-2.069-8.6-.979-4.021h3.822l1.785,8.6.246,1.129h.13l2.333-8.6.321-1.127h3.913l2.219,8.6.3,1.127Z" transform="translate(-143.547 -220.905)" fill="#fff"/>
          <path id="Path_3699" data-name="Path 3699" d="M282.387,347.468c-.488,0-1.412,0-1.412-.959,0-.807.624-.925,1.412-.925,1.055,0,1.767.067,1.767.806,0,.927-.413,1.079-1.767,1.078m.3-7.169c-2.313,0-4.55-.018-4.556,2.725h3.241c0-.788.506-.956,1.315-.959,1.411,0,1.468.521,1.466,1.348v1.395h-.147c-.36-1.01-1.77-.994-2.691-.993-2.333,0-3.578.656-3.578,2.775,0,2.255,1.317,2.743,3.578,2.743,1.128,0,2.594-.2,2.838-1.414l.113,0-.113,1.313h3.236l0-5.517c0-3.049-1.393-3.418-4.7-3.42" transform="translate(-186.44 -228.436)" fill="#fff"/>
          <path id="Path_3700" data-name="Path 3700" d="M315.34,329.1l0,8.595v4.024H312.1l.006-8.6V329.1Z" transform="translate(-209.507 -220.916)" fill="#fff"/>
          <path id="Path_3701" data-name="Path 3701" d="M351.9,343.729c.04-1.162.4-1.4,1.545-1.4,1.091,0,1.635.082,1.635,1.4Zm6.414,1.108c0-3.6-1.108-4.525-4.816-4.525-3.969,0-4.834,1.124-4.834,4.522,0,3.3.937,4.513,4.834,4.514a8.239,8.239,0,0,0,3.483-.522,2.527,2.527,0,0,0,1.332-2.523h-3.178c0,.925-.638,1.024-1.638,1.028-1.333,0-1.6-.457-1.6-2h6.414Z" transform="translate(-234.053 -228.444)" fill="#fff"/>
          <path id="Path_3702" data-name="Path 3702" d="M382.817,340.414l3.235,0v1.648h.13c.469-1.394,1.433-1.751,2.953-1.75,2.184,0,3.179.927,3.179,2.828v6.107h-3.235v-5.436c-.016-.857-.283-1.279-1.335-1.279-1.449,0-1.7.774-1.693,1.852l0,4.863h-3.232v-8.837Z" transform="translate(-256.977 -228.447)" fill="#fff"/>
          <path id="Path_3703" data-name="Path 3703" d="M444.828,329.112v2.826l-6.759,6.764,0,.1h6.757v2.93l-9.611,0h-1.923v-2.845l6.662-6.746v-.1h-6.227V329.11l9.615,0Z" transform="translate(-290.858 -220.925)" fill="#fff"/>
          <path id="Path_3704" data-name="Path 3704" d="M473.535,340.428h3.236v1.646l.13,0c.472-1.4,1.43-1.75,2.954-1.749,2.181,0,3.178.927,3.178,2.828v6.109H479.8v-5.438c-.02-.859-.283-1.277-1.339-1.277-1.45,0-1.69.771-1.69,1.849l0,4.865-3.236,0,0-8.6Z" transform="translate(-317.872 -228.455)" fill="#fff"/>
          <path id="Path_3705" data-name="Path 3705" d="M530.983,338.988h-2.837v-2.475l2.915,0c1.223,0,1.655.148,1.655,1.193,0,1.028-.51,1.28-1.733,1.28m-2.837-7.1H531.3c1.054.035,1.187.321,1.187,1.078,0,1.01-.322,1.21-1.637,1.211h-2.707Zm5.885,3.518v-.135c1.861-.27,2.221-1.316,2.221-2.909,0-2.765-1.655-3.234-4.459-3.234h-7.407l-.006,4.021v8.6h7.492c2.989,0,4.6-.419,4.6-3.518,0-1.579-.354-2.707-2.444-2.825" transform="translate(-352.005 -220.935)" fill="#fff"/>
          <path id="Path_3706" data-name="Path 3706" d="M569.426,338.855l2.726-8.6.377-1.128,3.893,0-2.8,8.6L572.3,341.75l-5.87,0-2.71-8.6-1.276-4.023h3.816l2.692,8.6.357,1.126Z" transform="translate(-377.559 -220.935)" fill="#fff"/>
        </g>
      </g>
    </g>
  </g>
</svg>
