<svg id="Group_15468" data-name="Group 15468" xmlns="http://www.w3.org/2000/svg" xmlns:xlink="http://www.w3.org/1999/xlink" width="50.226" height="60.026" viewBox="0 0 50.226 60.026">
  <defs>
    <clipPath id="clip-path">
      <rect id="Rectangle_5859" data-name="Rectangle 5859" width="50.226" height="60.026" fill="#fff"/>
    </clipPath>
  </defs>
  <g id="Group_15467" data-name="Group 15467" clip-path="url(#clip-path)">
    <path id="Path_3714" data-name="Path 3714" d="M166.891,62.949a3.675,3.675,0,1,1,3.675-3.675,3.679,3.679,0,0,1-3.675,3.675m0-4.9a1.225,1.225,0,1,0,1.225,1.225,1.227,1.227,0,0,0-1.225-1.225" transform="translate(-141.639 -48.249)" fill="#fff"/>
    <path id="Path_3715" data-name="Path 3715" d="M49,295.762H1.225A1.225,1.225,0,0,1,0,294.537v-18.41a1.225,1.225,0,0,1,.97-1.2l15.286-3.254a1.225,1.225,0,0,1,1.322.6l4.059,7.191,3.134-1.933a1.226,1.226,0,0,1,1.324.025l2.954,1.976,5.783-7.229a1.225,1.225,0,0,1,1.346-.4l13.212,4.426a1.225,1.225,0,0,1,.836,1.161v17.045A1.225,1.225,0,0,1,49,295.762M2.45,293.312H47.776V278.374L36.211,274.5l-5.951,7.439a1.225,1.225,0,0,1-1.638.253l-3.235-2.164-3.548,2.188a1.225,1.225,0,0,1-1.71-.441l-4.243-7.517L2.45,277.119Z" transform="translate(0 -235.736)" fill="#fff"/>
    <path id="Path_3716" data-name="Path 3716" d="M103.533,370.882H75.357a1.225,1.225,0,0,1-1.225-1.225v-10.22a1.225,1.225,0,1,1,2.45,0v9h25.726v-9a1.225,1.225,0,1,1,2.45,0v10.22a1.225,1.225,0,0,1-1.225,1.225" transform="translate(-64.332 -310.855)" fill="#fff"/>
    <path id="Path_3717" data-name="Path 3717" d="M121.538,258.954a1.226,1.226,0,0,1-1.067-.623l-4.685-8.3a1.225,1.225,0,0,1,.058-1.3l2.459-3.571a1.225,1.225,0,0,1,1.006-.53h0a1.225,1.225,0,0,1,1.006.526l6.444,9.27a1.225,1.225,0,0,1-.363,1.742l-4.218,2.6a1.226,1.226,0,0,1-.643.182m-3.242-9.461,3.683,6.525,2.033-1.254-4.694-6.754Z" transform="translate(-100.342 -212.291)" fill="#fff"/>
    <path id="Path_3718" data-name="Path 3718" d="M188.086,258.955a1.221,1.221,0,0,1-.68-.207l-3.889-2.6a1.225,1.225,0,0,1-.286-1.77l7.207-9.27a1.225,1.225,0,0,1,1.9-.037l3.169,3.764a1.225,1.225,0,0,1,.019,1.554l-6.486,8.107a1.224,1.224,0,0,1-.957.46m-2.114-4.113,1.861,1.245,5.155-6.444-1.546-1.837Z" transform="translate(-158.783 -212.293)" fill="#fff"/>
    <path id="Path_3719" data-name="Path 3719" d="M120.139,139.22c-3.218,0-6.16-2.055-8.283-5.786a21,21,0,0,1-2.679-9.593,11.707,11.707,0,0,1,.152-1.914,1.225,1.225,0,0,1,1.208-1.024h19.248a1.225,1.225,0,0,1,1.208,1.023,11.683,11.683,0,0,1,.152,1.914,20.95,20.95,0,0,1-2.686,9.595c-2.13,3.73-5.085,5.785-8.322,5.785m-8.5-15.867c-.008.161-.012.325-.012.488a18.375,18.375,0,0,0,2.358,8.382c1.18,2.075,3.206,4.548,6.153,4.548,5.537,0,8.557-8.541,8.557-12.929,0-.163,0-.326-.012-.488Z" transform="translate(-94.744 -104.92)" fill="#fff"/>
    <path id="Path_3720" data-name="Path 3720" d="M123.816,14.7h-20.5a1.225,1.225,0,0,1-1.206-1.01,11.638,11.638,0,1,1,22.907,0,1.224,1.224,0,0,1-1.206,1.01M104.4,12.25h18.333c.014-.205.021-.41.021-.612a9.188,9.188,0,0,0-18.375,0c0,.2.007.407.021.612" transform="translate(-88.455)" fill="#fff"/>
    <path id="Path_3721" data-name="Path 3721" d="M116.487,98.788H94.845a2.184,2.184,0,0,1-2.181-2.181V94.844a2.183,2.183,0,0,1,2.181-2.181h21.642a2.183,2.183,0,0,1,2.181,2.181v1.763a2.183,2.183,0,0,1-2.181,2.181m-21.373-2.45h21.1V95.113h-21.1Z" transform="translate(-80.414 -80.413)" fill="#fff"/>
    <path id="Path_3722" data-name="Path 3722" d="M182.06,9.8a1.225,1.225,0,0,1-1.224-1.2l-.139-7.35a1.225,1.225,0,0,1,2.45-.046l.139,7.35a1.225,1.225,0,0,1-1.2,1.248h-.024" transform="translate(-156.808 0)" fill="#fff"/>
    <path id="Path_3723" data-name="Path 3723" d="M137.614,400.905H121.689a1.225,1.225,0,1,1,0-2.45h15.925a1.225,1.225,0,1,1,0,2.45" transform="translate(-104.539 -345.779)" fill="#fff"/>
    <path id="Path_3724" data-name="Path 3724" d="M137.614,373.105H121.689a1.225,1.225,0,0,1,0-2.45h15.925a1.225,1.225,0,1,1,0,2.45" transform="translate(-104.539 -321.654)" fill="#fff"/>
  </g>
</svg>
