<svg id="Group_15466" data-name="Group 15466" xmlns="http://www.w3.org/2000/svg" width="52.686" height="52.686" viewBox="0 0 52.686 52.686">
  <path id="Path_3707" data-name="Path 3707" d="M0,0H52.686V52.686H0Z" fill="none"/>
  <path id="Path_3708" data-name="Path 3708" d="M3,42.309h8.781L40.319,13.771A6.209,6.209,0,1,0,31.538,4.99L3,33.528v8.781" transform="translate(3.586 3.791)" fill="none" stroke="#fff" stroke-linecap="round" stroke-linejoin="round" stroke-width="2"/>
  <path id="Path_3709" data-name="Path 3709" d="M14.5,5.5l8.781,8.781" transform="translate(17.331 6.574)" fill="none" stroke="#fff" stroke-linecap="round" stroke-linejoin="round" stroke-width="2"/>
  <path id="Path_3710" data-name="Path 3710" d="M22.757,13.976,11.781,3,3,11.781,13.976,22.757" transform="translate(3.586 3.586)" fill="none" stroke="#fff" stroke-linecap="round" stroke-linejoin="round" stroke-width="2"/>
  <path id="Path_3711" data-name="Path 3711" d="M8.793,8,5.5,11.293" transform="translate(6.574 9.562)" fill="none" stroke="#fff" stroke-linecap="round" stroke-linejoin="round" stroke-width="2"/>
  <path id="Path_3712" data-name="Path 3712" d="M20.781,12,31.757,22.976l-8.781,8.781L12,20.781" transform="translate(14.343 14.343)" fill="none" stroke="#fff" stroke-linecap="round" stroke-linejoin="round" stroke-width="2"/>
  <path id="Path_3713" data-name="Path 3713" d="M17.793,17,14.5,20.293" transform="translate(17.331 20.319)" fill="none" stroke="#fff" stroke-linecap="round" stroke-linejoin="round" stroke-width="2"/>
</svg>
